<svg width="20" height="20" viewBox="0 0 20 20" fill="none" xmlns="http://www.w3.org/2000/svg">
<path d="M15.5997 4.0012H4.47467C4.33128 3.99448 4.18797 4.01611 4.05294 4.06485C3.91792 4.11358 3.79383 4.18848 3.68778 4.28523C3.58174 4.38199 3.49582 4.49871 3.43494 4.62871C3.37406 4.75872 3.33943 4.89945 3.33301 5.04286V16.1929C3.34141 16.493 3.46439 16.7785 3.6767 16.9908C3.88901 17.2031 4.17454 17.3261 4.47467 17.3345H15.5997C15.8915 17.3215 16.1665 17.1947 16.3659 16.9813C16.5653 16.7679 16.6732 16.4849 16.6663 16.1929V5.04286C16.6687 4.90328 16.6426 4.76469 16.5895 4.63557C16.5364 4.50646 16.4575 4.38955 16.3576 4.29202C16.2578 4.19448 16.139 4.11838 16.0087 4.06837C15.8783 4.01836 15.7392 3.9955 15.5997 4.0012ZM7.49967 15.1179H5.55801V9.1762H7.49967V15.1179ZM6.57467 8.2762C6.43918 8.28092 6.30418 8.25757 6.17814 8.20762C6.0521 8.15767 5.93775 8.08219 5.84228 7.98594C5.7468 7.88968 5.67227 7.77472 5.62335 7.64828C5.57443 7.52184 5.55218 7.38665 5.55801 7.2512C5.55202 7.11428 5.57471 6.97763 5.62463 6.85C5.67456 6.72237 5.7506 6.60659 5.8479 6.51008C5.9452 6.41357 6.06159 6.33846 6.18962 6.28957C6.31765 6.24068 6.45448 6.2191 6.59134 6.2262C6.72683 6.22148 6.86184 6.24482 6.98788 6.29477C7.11392 6.34472 7.22826 6.4202 7.32374 6.51646C7.41921 6.61271 7.49375 6.72767 7.54267 6.85411C7.59159 6.98055 7.61383 7.11575 7.60801 7.2512C7.614 7.38811 7.5913 7.52476 7.54138 7.65239C7.49146 7.78002 7.41541 7.8958 7.31812 7.99231C7.22082 8.08883 7.10442 8.16394 6.9764 8.21282C6.84837 8.26171 6.71153 8.2833 6.57467 8.2762ZM14.4497 15.1179H12.4997V11.8679C12.4997 11.0929 12.2247 10.5595 11.533 10.5595C11.3181 10.5614 11.1091 10.6297 10.9346 10.755C10.76 10.8803 10.6285 11.0565 10.558 11.2595C10.5031 11.4115 10.4804 11.5733 10.4913 11.7345V15.1179H8.57467V9.1762H10.4913V10.0095C10.6617 9.69648 10.9154 9.43662 11.2242 9.25868C11.533 9.08073 11.885 8.99162 12.2413 9.0012C13.4997 9.0012 14.4497 9.83453 14.4497 11.6095V15.1179Z" fill="black"/>
</svg>
