<svg width="24" height="24" viewBox="0 0 24 24" fill="none" xmlns="http://www.w3.org/2000/svg">
<g clip-path="url(#clip0_1275_2031)">
<path d="M19.9998 13.6008V12.0008C19.9998 11.5764 19.8312 11.1695 19.5312 10.8694C19.2311 10.5694 18.8242 10.4008 18.3998 10.4008H2.3998C1.97546 10.4008 1.56849 10.5694 1.26843 10.8694C0.968376 11.1695 0.799805 11.5764 0.799805 12.0008V21.6008C0.799805 22.0251 0.968376 22.4321 1.26843 22.7322C1.56849 23.0322 1.97546 23.2008 2.3998 23.2008H18.3998C18.8242 23.2008 19.2311 23.0322 19.5312 22.7322C19.8312 22.4321 19.9998 22.0251 19.9998 21.6008V20.0008M19.9998 13.6008H13.5998C12.7511 13.6008 11.9372 13.9379 11.3371 14.538C10.7369 15.1382 10.3998 15.9521 10.3998 16.8008C10.3998 17.6495 10.7369 18.4634 11.3371 19.0635C11.9372 19.6636 12.7511 20.0008 13.5998 20.0008H19.9998M19.9998 13.6008C20.8485 13.6008 21.6624 13.9379 22.2625 14.538C22.8627 15.1382 23.1998 15.9521 23.1998 16.8008C23.1998 17.6495 22.8627 18.4634 22.2625 19.0635C21.6624 19.6636 20.8485 20.0008 19.9998 20.0008M5.5998 10.4008V5.60078C5.5998 4.32774 6.10552 3.10684 7.00569 2.20667C7.90587 1.30649 9.12677 0.800781 10.3998 0.800781C11.6728 0.800781 12.8937 1.30649 13.7939 2.20667C14.6941 3.10684 15.1998 4.32774 15.1998 5.60078V10.4008M19.1998 16.8008H20.7998M15.9998 16.8008H17.5998M12.7998 16.8008H14.3998" stroke="black" stroke-width="1.5"/>
</g>
<defs>
<clipPath id="clip0_1275_2031">
<rect width="24" height="24" fill="white"/>
</clipPath>
</defs>
</svg>
