<svg width="23" height="22" viewBox="0 0 23 22" fill="none" xmlns="http://www.w3.org/2000/svg">
<ellipse cx="11.4135" cy="15.2516" rx="5.33537" ry="2.22307" stroke="#16968F" stroke-width="1.60061" stroke-linejoin="round"/>
<ellipse cx="11.4118" cy="7.69332" rx="2.66768" ry="2.66768" stroke="#16968F" stroke-width="1.60061" stroke-linejoin="round"/>
<path d="M6.74805 12.2327C5.72967 12.7309 4.96557 13.3881 4.58008 14.137C4.4151 14.1849 4.26121 14.2362 4.12109 14.2922C3.77474 14.4308 3.54785 14.5765 3.4209 14.6965C3.36454 14.7499 3.33829 14.7865 3.32715 14.8069C3.33823 14.8272 3.36433 14.8647 3.4209 14.9182C3.5479 15.0382 3.775 15.1831 4.12109 15.3215C4.17969 15.345 4.2416 15.3658 4.30469 15.3879C4.34518 16.0679 4.687 16.7041 5.25781 17.2571C4.61577 17.1588 4.02687 17.0081 3.52637 16.8079C3.0684 16.6246 2.6442 16.3857 2.32129 16.0803C2.03729 15.8117 1.79047 15.449 1.7334 15.0032L1.7207 14.8069L1.7334 14.6106C1.79055 14.1648 2.0373 13.8021 2.32129 13.5334C2.64414 13.2281 3.06851 12.9901 3.52637 12.8069C4.39499 12.4594 5.52801 12.255 6.74805 12.2327Z" fill="#16968F"/>
<path d="M16.0781 12.2327C17.2985 12.2549 18.432 12.4594 19.3008 12.8069C19.7585 12.9901 20.1831 13.2282 20.5059 13.5334C20.8304 13.8404 21.1054 14.2706 21.1055 14.8069C21.1055 15.3432 20.8303 15.7733 20.5059 16.0803C20.183 16.3856 19.7586 16.6247 19.3008 16.8079C18.7998 17.0082 18.2101 17.1588 17.5674 17.2571C18.1387 16.7039 18.48 16.0682 18.5205 15.3879C18.5842 15.3656 18.6469 15.3452 18.7061 15.3215C19.0522 15.183 19.2793 15.0382 19.4062 14.9182C19.4625 14.865 19.4879 14.8272 19.499 14.8069C19.4878 14.7865 19.4622 14.7495 19.4062 14.6965C19.2793 14.5765 19.0523 14.4308 18.7061 14.2922C18.5655 14.236 18.4108 14.185 18.2451 14.137C17.8595 13.3882 17.0965 12.7307 16.0781 12.2327Z" fill="#16968F"/>
<path d="M15.8584 6.00317C17.2826 6.00317 18.4374 7.15813 18.4375 8.58228C18.4374 10.0064 17.2826 11.1614 15.8584 11.1614C15.3911 11.1613 14.9542 11.0341 14.5762 10.8167C14.9539 10.4342 15.2615 9.98332 15.4814 9.48462C15.5975 9.53327 15.7247 9.56073 15.8584 9.56079C16.3986 9.56079 16.8369 9.12245 16.8369 8.58228C16.8368 8.04212 16.3986 7.60474 15.8584 7.60474H15.8564C15.8456 7.04693 15.7324 6.51496 15.5342 6.02563C15.6405 6.01227 15.7485 6.00319 15.8584 6.00317Z" fill="#16968F"/>
<path d="M6.96777 6.00317C7.07734 6.00317 7.18504 6.01237 7.29102 6.02563C7.09294 6.51482 6.97963 7.04712 6.96875 7.60474H6.96777C6.42767 7.60482 5.99031 8.04217 5.99023 8.58228C5.99029 9.1224 6.42766 9.56071 6.96777 9.56079C7.10113 9.56079 7.22788 9.53298 7.34375 9.48462C7.56364 9.98342 7.87223 10.4341 8.25 10.8167C7.87193 11.0341 7.43515 11.1614 6.96777 11.1614C5.54367 11.1613 4.38872 10.0064 4.38867 8.58228C4.38874 7.15818 5.54368 6.00326 6.96777 6.00317Z" fill="#16968F"/>
</svg>
